HIERARCHY
ROOT Hips
{
  OFFSET 5.84602e-005 68.8428 3.50346
  CHANNELS 6 Xposition Yposition Zposition Zrotation Xrotation Yrotation
  JOINT Spine
  {
    OFFSET 0 8.597 -4.6522
    CHANNELS 3 Zrotation Xrotation Yrotation
    JOINT Spine1
    {
      OFFSET 0 7.8454 0.4098
      CHANNELS 3 Zrotation Xrotation Yrotation
      JOINT Spine2
      {
        OFFSET 0 9.7078 -2.1609
        CHANNELS 3 Zrotation Xrotation Yrotation
        JOINT Neck
        {
          OFFSET 0 21.8761 -0.4549
          CHANNELS 3 Zrotation Xrotation Yrotation
          JOINT Head
          {
            OFFSET 0 12.3537 3.3602
            CHANNELS 3 Zrotation Xrotation Yrotation
            End Site
            {
              OFFSET 0.0001 18.9506 0.5657
            }
          }
        }
        JOINT LeftShoulder
        {
          OFFSET 2.2086 21.1115 7.2329
          CHANNELS 3 Zrotation Xrotation Yrotation
          JOINT LeftArm
          {
            OFFSET 13.1193 3.0282 -4.8998
            CHANNELS 3 Zrotation Xrotation Yrotation
            JOINT LeftForeArm
            {
              OFFSET 27.4081 -0.0973053 -0.2375
              CHANNELS 3 Zrotation Xrotation Yrotation
              JOINT LeftHand
              {
                OFFSET 22.8641 0.0662994 -0.1369
                CHANNELS 3 Zrotation Xrotation Yrotation
                JOINT LeftHandIndex1
                {
                  OFFSET 8.8614 0.775009 2.4612
                  CHANNELS 3 Zrotation Xrotation Yrotation
                  JOINT LeftHandIndex2
                  {
                    OFFSET 3.3146 -0.808304 0.5841
                    CHANNELS 3 Zrotation Xrotation Yrotation
                    JOINT LeftHandIndex3
                    {
                      OFFSET 2.2628 -0.552002 0.3989
                      CHANNELS 3 Zrotation Xrotation Yrotation
                      End Site
                      {
                        OFFSET 1.6102 -0.4807 0.2612
                      }
                    }
                  }
                }
                JOINT LeftHandMiddle1
                {
                  OFFSET 8.9937 0.895004 0.2143
                  CHANNELS 3 Zrotation Xrotation Yrotation
                  JOINT LeftHandMiddle2
                  {
                    OFFSET 4.0984 0.0113983 -0.0242
                    CHANNELS 3 Zrotation Xrotation Yrotation
                    JOINT LeftHandMiddle3
                    {
                      OFFSET 2.2716 0.00689697 -0.0138001
                      CHANNELS 3 Zrotation Xrotation Yrotation
                      End Site
                      {
                        OFFSET 2.0404 -0.1441 0.0027
                      }
                    }
                  }
                }
                JOINT LeftHandRing1
                {
                  OFFSET 8.5234 0.597198 -2.0164
                  CHANNELS 3 Zrotation Xrotation Yrotation
                  JOINT LeftHandRing2
                  {
                    OFFSET 3.7188 -0.188293 -0.2328
                    CHANNELS 3 Zrotation Xrotation Yrotation
                    JOINT LeftHandRing3
                    {
                      OFFSET 2.1191 -0.106598 -0.1332
                      CHANNELS 3 Zrotation Xrotation Yrotation
                      End Site
                      {
                        OFFSET 1.8737 -0.2304 -0.0886
                      }
                    }
                  }
                }
                JOINT LeftHandPinky1
                {
                  OFFSET 7.9094 -0.601089 -3.4825
                  CHANNELS 3 Zrotation Xrotation Yrotation
                  JOINT LeftHandPinky2
                  {
                    OFFSET 2.2874 -0.477005 -0.6314
                    CHANNELS 3 Zrotation Xrotation Yrotation
                    JOINT LeftHandPinky3
                    {
                      OFFSET 1.6774 -0.349396 -0.4633
                      CHANNELS 3 Zrotation Xrotation Yrotation
                      End Site
                      {
                        OFFSET 1.4888 -0.4091 -0.3416
                      }
                    }
                  }
                }
                JOINT LeftHandThumb1
                {
                  OFFSET 1.833 -1.3875 1.3896
                  CHANNELS 3 Zrotation Xrotation Yrotation
                  JOINT LeftHandThumb2
                  {
                    OFFSET 3.4129 -1.121 2.5732
                    CHANNELS 3 Zrotation Xrotation Yrotation
                    JOINT LeftHandThumb3
                    {
                      OFFSET 2.2474 -0.804199 1.6192
                      CHANNELS 3 Zrotation Xrotation Yrotation
                      End Site
                      {
                        OFFSET 1.6527 -0.5689 1.1317
                      }
                    }
                  }
                }
              }
            }
          }
        }
        JOINT RightShoulder
        {
          OFFSET -2.2086 21.1115 7.2329
          CHANNELS 3 Zrotation Xrotation Yrotation
          JOINT RightArm
          {
            OFFSET -13.1216 3.0287 -4.9007
            CHANNELS 3 Zrotation Xrotation Yrotation
            JOINT RightForeArm
            {
              OFFSET -27.4081 -0.0973053 -0.2375
              CHANNELS 3 Zrotation Xrotation Yrotation
              JOINT RightHand
              {
                OFFSET -22.8641 0.0664063 -0.1369
                CHANNELS 3 Zrotation Xrotation Yrotation
                JOINT RightHandIndex1
                {
                  OFFSET -8.8614 0.774994 2.4612
                  CHANNELS 3 Zrotation Xrotation Yrotation
                  JOINT RightHandIndex2
                  {
                    OFFSET -3.3146 -0.808304 0.5841
                    CHANNELS 3 Zrotation Xrotation Yrotation
                    JOINT RightHandIndex3
                    {
                      OFFSET -2.2628 -0.552002 0.3989
                      CHANNELS 3 Zrotation Xrotation Yrotation
                      End Site
                      {
                        OFFSET -1.6102 -0.4807 0.2612
                      }
                    }
                  }
                }
                JOINT RightHandMiddle1
                {
                  OFFSET -8.9937 0.894989 0.2143
                  CHANNELS 3 Zrotation Xrotation Yrotation
                  JOINT RightHandMiddle2
                  {
                    OFFSET -4.0984 0.0113983 -0.0242
                    CHANNELS 3 Zrotation Xrotation Yrotation
                    JOINT RightHandMiddle3
                    {
                      OFFSET -2.2716 0.00691223 -0.0138001
                      CHANNELS 3 Zrotation Xrotation Yrotation
                      End Site
                      {
                        OFFSET -2.0404 -0.1441 0.0027
                      }
                    }
                  }
                }
                JOINT RightHandRing1
                {
                  OFFSET -8.5234 0.597198 -2.0164
                  CHANNELS 3 Zrotation Xrotation Yrotation
                  JOINT RightHandRing2
                  {
                    OFFSET -3.7188 -0.188309 -0.2328
                    CHANNELS 3 Zrotation Xrotation Yrotation
                    JOINT RightHandRing3
                    {
                      OFFSET -2.1191 -0.106598 -0.1332
                      CHANNELS 3 Zrotation Xrotation Yrotation
                      End Site
                      {
                        OFFSET -1.8737 -0.2304 -0.0886
                      }
                    }
                  }
                }
                JOINT RightHandPinky1
                {
                  OFFSET -7.9094 -0.601105 -3.4825
                  CHANNELS 3 Zrotation Xrotation Yrotation
                  JOINT RightHandPinky2
                  {
                    OFFSET -2.2874 -0.477005 -0.6314
                    CHANNELS 3 Zrotation Xrotation Yrotation
                    JOINT RightHandPinky3
                    {
                      OFFSET -1.6774 -0.349396 -0.4633
                      CHANNELS 3 Zrotation Xrotation Yrotation
                      End Site
                      {
                        OFFSET -1.4888 -0.4091 -0.3416
                      }
                    }
                  }
                }
                JOINT RightHandThumb1
                {
                  OFFSET -1.833 -1.38751 1.3896
                  CHANNELS 3 Zrotation Xrotation Yrotation
                  JOINT RightHandThumb2
                  {
                    OFFSET -3.41299 -1.12099 2.5732
                    CHANNELS 3 Zrotation Xrotation Yrotation
                    JOINT RightHandThumb3
                    {
                      OFFSET -2.24741 -0.804108 1.6192
                      CHANNELS 3 Zrotation Xrotation Yrotation
                      End Site
                      {
                        OFFSET -1.6527 -0.5689 1.1317
                      }
                    }
                  }
                }
              }
            }
          }
        }
      }
    }
  }
  JOINT RightUpLeg
  {
    OFFSET -9.1966 3.8861 -0.7581
    CHANNELS 3 Zrotation Xrotation Yrotation
    JOINT RightLeg
    {
      OFFSET -0.7359 -41.0265 0
      CHANNELS 3 Zrotation Xrotation Yrotation
      JOINT RightFoot
      {
        OFFSET 0 -40.2855 0
        CHANNELS 3 Zrotation Xrotation Yrotation
        JOINT RightToeBase
        {
          OFFSET 0 -5.6122 11.7359
          CHANNELS 3 Zrotation Xrotation Yrotation
          End Site
          {
            OFFSET 0 0 7.8731
          }
        }
      }
    }
  }
  JOINT LeftUpLeg
  {
    OFFSET 9.1965 3.8864 -0.7581
    CHANNELS 3 Zrotation Xrotation Yrotation
    JOINT LeftLeg
    {
      OFFSET 0.7359 -41.0268 0
      CHANNELS 3 Zrotation Xrotation Yrotation
      JOINT LeftFoot
      {
        OFFSET 0 -40.2855 0
        CHANNELS 3 Zrotation Xrotation Yrotation
        JOINT LeftToeBase
        {
          OFFSET 0 -5.6122 11.7359
          CHANNELS 3 Zrotation Xrotation Yrotation
          End Site
          {
            OFFSET 0 0 7.8731
          }
        }
      }
    }
  }
}
MOTION
Frames:	4
Frame Time:	0.0333333
5.84602e-005 68.8428 3.50346 0 0 -0 0 0 -0 0 0 -0 0 0 -0 0 0 -0 0 0 -0 0 0 -0 0 0 -0 0 0 -0 0 0 -0 0 0 -0 0 0 -0 0 0 -0 0 0 -0 -0.0146107 -8.87603e-005 -2.63497e-007 2.99804e-018 -2.42657e-020 -1.42182e-022 0 0 -0 -0.0187562 -0.001176 5.858e-005 5.06224e-018 3.88251e-019 1.21329e-020 0 0 -0 -0.012269 -0.00324817 0.000675346 -1.74678e-018 3.88251e-019 -0 0 0 -0 0 0 -0 0 0 -0 0 0 -0 0 0 -0 0 0 -0 0 0 -0 0 0 -0 0 0 -0 0 0 -0 0 0 -0 0.0149955 -9.10982e-005 2.64101e-007 -9.69331e-018 1.21329e-020 -4.7394e-023 0 0 -0 0.0189956 -0.00119102 -5.96516e-005 -5.41541e-019 0 2.42657e-020 0 0 -0 0.0122698 -0.00324857 -0.000673756 -2.00796e-019 0 -1.94126e-019 0 0 -0 0 0 -0 0 0 -0 3.39842 1.33031 -0.0637918 -5.65207e-008 0.834868 -0.000436188 -3.39935 -2.16518 -0.0642563 -8.89002e-024 -1.18485e-023 -1.48106e-024 -3.39844 1.35642 0.0640283 -3.18788e-007 0.782166 -0.000588827 3.39931 -2.13858 0.0634662 1.1399e-023 0 -0 
-1.98601 47.375 16.737 0 0 -33.334 -0.0425926 4.46695 -0.0580878 -0.0809999 8.93394 -0.113324 -0.0809965 8.93395 -0.113353 -0.849599 1.53289 7.1848 0.000318106 -13.6928 0.0366619 9.196 -4.9926 6.08787 -11.0169 -1.03892 -15.2926 -8.84413 1.78315 -46.0886 13.7479 -22.6573 5.59205 -7.95139e-016 -7.35503e-015 -3.18055e-015 3.18055e-015 -1.13307e-014 1.59028e-015 3.18055e-015 -4.57205e-015 -1.59028e-015 -7.95139e-016 -7.35503e-015 -3.18055e-015 -0.0146308 -8.71507e-005 6.65259e-006 -7.95139e-016 -2.78299e-015 3.18055e-015 -7.95139e-016 -7.35503e-015 -3.18055e-015 -0.0187337 -0.00117556 5.09479e-005 -7.95139e-016 -4.77083e-015 3.18055e-015 -7.95139e-016 -7.35503e-015 -3.18055e-015 -0.0121901 -0.00322742 0.000671745 4.96564e-032 1.78906e-015 -1.59028e-015 -7.95139e-016 -7.35503e-015 -3.18055e-015 3.18055e-015 -1.13307e-014 1.59028e-015 3.18055e-015 -4.57205e-015 -1.59028e-015 3.64963 -20.5822 -19.3389 32.4444 7.27171 6.15205 11.8443 -22.4572 47.2348 4.46902 -18.7604 -7.09392 3.97569e-016 6.36111e-015 -5.01931e-015 5.24936e-007 -1.35235e-007 -2.26497e-006 -8.94531e-016 1.59028e-014 3.13086e-015 3.97569e-016 6.36111e-015 -5.01931e-015 0.0149618 -8.16009e-005 -2.22852e-006 -3.27995e-015 -3.18055e-015 1.11816e-014 3.97569e-016 6.36111e-015 -5.01931e-015 0.0189776 -0.00118192 -5.98195e-005 -3.97569e-016 -3.18055e-015 -4.82053e-015 3.97569e-016 6.36111e-015 -5.01931e-015 0.0122736 -0.00324373 -0.000677423 -3.97569e-016 6.36111e-015 -2.28602e-015 3.97569e-016 6.36111e-015 -5.01931e-015 5.24936e-007 -1.35235e-007 -2.26497e-006 -8.94531e-016 1.59028e-014 3.13086e-015 1.12787 -20.1128 -0.512875 -3.62185 58.1187 3.46422 -3.97412 13.9905 1.19957 -7.47206e-007 -5.60403e-007 -2.2141e-006 0.338416 -19.901 -0.707316 3.62007 57.8253 -3.49906 3.41834 13.9733 -3.20126 -4.31643e-006 -8.62627e-007 -6.53611e-007 
-3.37834 25.8381 28.9128 0 0 -66.6681 -0.0715607 8.93359 -0.125815 -0.125344 17.8675 -0.24468 -0.125347 17.8675 -0.244696 -2.07997 2.99353 14.3844 0.020183 -27.3857 0.0802442 19.4592 -9.81511 12.3123 -22.5621 -1.8544 -30.5978 -16.254 -0.189867 -92.1112 33.5093 -44.5737 14.5634 5.01254e-007 -1.06713e-007 -3.83502e-007 1.45953e-006 2.50102e-006 6.94947e-007 5.14167e-007 2.66783e-006 -1.52049e-006 5.01254e-007 -1.06713e-007 -3.83502e-007 -0.0146427 -8.24914e-005 1.97792e-007 5.16096e-007 2.66804e-006 -1.52015e-006 5.01254e-007 -1.06713e-007 -3.83502e-007 -0.0188448 -0.00118289 5.95856e-005 5.16636e-007 2.66824e-006 -1.52006e-006 5.01254e-007 -1.06713e-007 -3.83502e-007 -0.0122588 -0.00325027 0.000678105 6.68326e-007 -1.42232e-007 -5.11371e-007 5.01254e-007 -1.06713e-007 -3.83502e-007 1.45953e-006 2.50102e-006 6.94947e-007 5.14167e-007 2.66783e-006 -1.52049e-006 -7.77333 -33.7136 -45.1266 63.294 14.289 12.6007 41.3936 -4.04251 87.9062 3.31266 -36.5845 -16.8134 8.32081e-008 -2.65142e-008 1.87607e-006 1.06057e-007 3.32832e-007 1.37036e-006 8.32081e-008 -2.65142e-008 1.87607e-006 8.32081e-008 -2.65142e-008 1.87607e-006 0.0150027 -9.16159e-005 -2.6652e-006 8.32545e-008 -2.62688e-008 1.87608e-006 8.32081e-008 -2.65142e-008 1.87607e-006 0.0189519 -0.00119393 -5.73602e-005 -4.3091e-008 -7.18689e-007 1.01154e-006 8.32081e-008 -2.65142e-008 1.87607e-006 0.0122511 -0.00324236 -0.000674239 8.3298e-008 -2.63228e-008 1.87607e-006 8.32081e-008 -2.65142e-008 1.87607e-006 1.06057e-007 3.32832e-007 1.37036e-006 8.32081e-008 -2.65142e-008 1.87607e-006 -0.382395 -40.4023 -1.90949 -163.524 65.8669 161.227 -3.72358 31.5299 -0.331765 3.18055e-015 0 -3.18055e-015 2.26446 -39.987 -1.10725 163.037 66.3691 -160.776 4.14434 31.3935 -4.35422 -2.07527e-006 1.73872e-006 1.71773e-006 
-3.68953 10.7653 37.0665 -1.40334e-014 2.29846e-019 -90.0019 -0.0779756 12.0603 -0.183374 -0.119532 24.1207 -0.362047 -0.119539 24.1207 -0.362026 -3.00769 3.98222 19.209 2.68206e-006 -37.0045 -6.3354e-007 27.2462 -12.9682 16.9071 -30.8985 -2.18474 -41.3195 -23.1398 -3.90974 -124.166 55.1077 -58.567 27.411 6.36111e-015 -3.18055e-015 -1.59028e-015 6.36111e-015 -6.36111e-015 -1.59028e-015 9.54166e-015 -6.36111e-015 -1.59028e-015 6.36111e-015 -3.18055e-015 -1.59028e-015 -0.0145501 -8.31912e-005 2.54601e-006 -6.36111e-015 0 -0 6.36111e-015 -3.18055e-015 -1.59028e-015 -0.0187177 -0.00117385 5.70195e-005 -3.18055e-015 3.18055e-015 -1.59028e-015 6.36111e-015 -3.18055e-015 -1.59028e-015 -0.012272 -0.0032453 0.000678717 -6.36111e-015 -9.54166e-015 -0 6.36111e-015 -3.18055e-015 -1.59028e-015 6.36111e-015 -6.36111e-015 -1.59028e-015 9.54166e-015 -6.36111e-015 -1.59028e-015 -22.0557 -34.2496 -65.3894 83.9165 18.9388 17.4499 55.4025 25.2918 92.5787 -2.87223 -47.5375 -27.5215 4.08737e-007 7.53004e-008 9.47775e-008 -7.87847e-007 1.53479e-008 1.54017e-006 3.53113e-031 -6.36111e-015 3.18055e-015 4.08737e-007 7.53004e-008 9.47775e-008 0.0150025 -8.90049e-005 4.05049e-007 -1.59028e-015 9.54166e-015 6.36111e-015 4.08737e-007 7.53004e-008 9.47775e-008 0.018975 -0.00118957 -5.70378e-005 -1.33347e-007 2.97244e-007 7.82884e-007 4.08737e-007 7.53004e-008 9.47775e-008 0.0123212 -0.00326256 -0.000676241 -1.59028e-015 3.18055e-015 6.36111e-015 4.08737e-007 7.53004e-008 9.47775e-008 -7.87847e-007 1.53479e-008 1.54017e-006 3.53113e-031 -6.36111e-015 3.18055e-015 -0.383789 -54.3301 -6.70224 -172.747 28.0174 162.646 -1.50937 43.853 -3.389 3.18055e-015 -7.45443e-015 -4.77083e-015 1.37996 -53.752 1.17992 172.569 28.6794 -162.679 4.2166 43.6778 -4.39162 -1.93789e-006 1.19418e-006 -2.67001e-007 
